<mxfile host="65bd71144e">
    <diagram id="-P6cH4McYUPLvEnAIw6s" name="Page-1">
        <mxGraphModel dx="824" dy="742" grid="1" gridSize="10" guides="1" tooltips="1" connect="1" arrows="1" fold="1" page="1" pageScale="1" pageWidth="850" pageHeight="1100" math="0" shadow="0">
            <root>
                <mxCell id="0"/>
                <mxCell id="1" parent="0"/>
                <mxCell id="18" value="&lt;p style=&quot;margin:0px;margin-top:4px;margin-left:5px;text-align:left;&quot;&gt;&lt;b&gt;sd&lt;/b&gt;&amp;nbsp;jwt authorization&lt;/p&gt;" style="html=1;shape=mxgraph.sysml.package;overflow=fill;labelX=95;align=left;spacingLeft=5;verticalAlign=top;spacingTop=-3;" vertex="1" parent="1">
                    <mxGeometry x="60" y="50" width="740" height="860" as="geometry"/>
                </mxCell>
                <mxCell id="2" value="handler:server" style="shape=umlLifeline;perimeter=lifelinePerimeter;whiteSpace=wrap;html=1;container=1;dropTarget=0;collapsible=0;recursiveResize=0;outlineConnect=0;portConstraint=eastwest;newEdgeStyle={&quot;curved&quot;:0,&quot;rounded&quot;:0};" vertex="1" parent="1">
                    <mxGeometry x="100" y="80" width="100" height="830" as="geometry"/>
                </mxCell>
                <mxCell id="9" value="" style="html=1;points=[[0,0,0,0,5],[0,1,0,0,-5],[1,0,0,0,5],[1,1,0,0,-5]];perimeter=orthogonalPerimeter;outlineConnect=0;targetShapes=umlLifeline;portConstraint=eastwest;newEdgeStyle={&quot;curved&quot;:0,&quot;rounded&quot;:0};" vertex="1" parent="2">
                    <mxGeometry x="45" y="80" width="10" height="730" as="geometry"/>
                </mxCell>
                <mxCell id="3" value="middleware[check&lt;div&gt;jwt]:server&lt;/div&gt;" style="shape=umlLifeline;perimeter=lifelinePerimeter;whiteSpace=wrap;html=1;container=1;dropTarget=0;collapsible=0;recursiveResize=0;outlineConnect=0;portConstraint=eastwest;newEdgeStyle={&quot;curved&quot;:0,&quot;rounded&quot;:0};" vertex="1" parent="1">
                    <mxGeometry x="240" y="80" width="100" height="830" as="geometry"/>
                </mxCell>
                <mxCell id="12" value="" style="html=1;points=[[0,0,0,0,5],[0,1,0,0,-5],[1,0,0,0,5],[1,1,0,0,-5]];perimeter=orthogonalPerimeter;outlineConnect=0;targetShapes=umlLifeline;portConstraint=eastwest;newEdgeStyle={&quot;curved&quot;:0,&quot;rounded&quot;:0};" vertex="1" parent="3">
                    <mxGeometry x="45" y="120" width="10" height="630" as="geometry"/>
                </mxCell>
                <mxCell id="4" value="middleware[check&lt;div&gt;Role]:server&lt;/div&gt;" style="shape=umlLifeline;perimeter=lifelinePerimeter;whiteSpace=wrap;html=1;container=1;dropTarget=0;collapsible=0;recursiveResize=0;outlineConnect=0;portConstraint=eastwest;newEdgeStyle={&quot;curved&quot;:0,&quot;rounded&quot;:0};" vertex="1" parent="1">
                    <mxGeometry x="380" y="80" width="100" height="830" as="geometry"/>
                </mxCell>
                <mxCell id="5" value="service[jwt]:server" style="shape=umlLifeline;perimeter=lifelinePerimeter;whiteSpace=wrap;html=1;container=1;dropTarget=0;collapsible=0;recursiveResize=0;outlineConnect=0;portConstraint=eastwest;newEdgeStyle={&quot;curved&quot;:0,&quot;rounded&quot;:0};" vertex="1" parent="1">
                    <mxGeometry x="520" y="80" width="100" height="830" as="geometry"/>
                </mxCell>
                <mxCell id="19" value="" style="html=1;points=[[0,0,0,0,5],[0,1,0,0,-5],[1,0,0,0,5],[1,1,0,0,-5]];perimeter=orthogonalPerimeter;outlineConnect=0;targetShapes=umlLifeline;portConstraint=eastwest;newEdgeStyle={&quot;curved&quot;:0,&quot;rounded&quot;:0};" vertex="1" parent="5">
                    <mxGeometry x="45" y="160" width="10" height="190" as="geometry"/>
                </mxCell>
                <mxCell id="13" value="verifyJwt()" style="html=1;verticalAlign=bottom;endArrow=block;curved=0;rounded=0;entryX=0;entryY=0;entryDx=0;entryDy=5;" edge="1" target="12" parent="1" source="2">
                    <mxGeometry relative="1" as="geometry">
                        <mxPoint x="215" y="205" as="sourcePoint"/>
                    </mxGeometry>
                </mxCell>
                <mxCell id="20" value="verifyJwt()" style="html=1;verticalAlign=bottom;endArrow=block;curved=0;rounded=0;entryX=0;entryY=0;entryDx=0;entryDy=5;" edge="1" target="19" parent="1" source="12">
                    <mxGeometry relative="1" as="geometry">
                        <mxPoint x="495" y="245" as="sourcePoint"/>
                    </mxGeometry>
                </mxCell>
                <mxCell id="22" value="Invalid jwt" style="shape=umlFrame;whiteSpace=wrap;html=1;pointerEvents=0;" vertex="1" parent="1">
                    <mxGeometry x="60" y="290" width="740" height="110" as="geometry"/>
                </mxCell>
                <mxCell id="21" value="return data" style="html=1;verticalAlign=bottom;endArrow=open;dashed=1;endSize=8;curved=0;rounded=0;exitX=0;exitY=1;exitDx=0;exitDy=-5;" edge="1" source="19" parent="1" target="3">
                    <mxGeometry relative="1" as="geometry">
                        <mxPoint x="495" y="315" as="targetPoint"/>
                    </mxGeometry>
                </mxCell>
                <mxCell id="23" value="return failed" style="html=1;verticalAlign=bottom;endArrow=open;dashed=1;endSize=8;curved=0;rounded=0;exitX=0;exitY=1;exitDx=0;exitDy=-5;" edge="1" parent="1">
                    <mxGeometry relative="1" as="geometry">
                        <mxPoint x="149.66666666666652" y="344.5799999999999" as="targetPoint"/>
                        <mxPoint x="280" y="344.58" as="sourcePoint"/>
                    </mxGeometry>
                </mxCell>
                <mxCell id="24" value="return failed" style="html=1;verticalAlign=bottom;endArrow=open;dashed=1;endSize=8;curved=0;rounded=0;" edge="1" parent="1">
                    <mxGeometry relative="1" as="geometry">
                        <mxPoint x="59.99666666666651" y="379.99999999999994" as="targetPoint"/>
                        <mxPoint x="150" y="380" as="sourcePoint"/>
                    </mxGeometry>
                </mxCell>
                <mxCell id="10" value="request" style="html=1;verticalAlign=bottom;endArrow=block;curved=0;rounded=0;entryX=0;entryY=0;entryDx=0;entryDy=5;exitX=0;exitY=0.134;exitDx=0;exitDy=0;exitPerimeter=0;" edge="1" target="9" parent="1" source="18">
                    <mxGeometry relative="1" as="geometry">
                        <mxPoint x="75" y="165" as="sourcePoint"/>
                    </mxGeometry>
                </mxCell>
                <mxCell id="25" value="Valid jwt" style="shape=umlFrame;whiteSpace=wrap;html=1;pointerEvents=0;" vertex="1" parent="1">
                    <mxGeometry x="60" y="400" width="740" height="510" as="geometry"/>
                </mxCell>
                <mxCell id="29" value="return undefined" style="html=1;verticalAlign=bottom;endArrow=open;dashed=1;endSize=8;curved=0;rounded=0;exitX=0;exitY=1;exitDx=0;exitDy=-5;" edge="1" parent="1">
                    <mxGeometry relative="1" as="geometry">
                        <mxPoint x="292.5" y="320" as="targetPoint"/>
                        <mxPoint x="567.5" y="320" as="sourcePoint"/>
                    </mxGeometry>
                </mxCell>
                <mxCell id="14" value="return data" style="html=1;verticalAlign=bottom;endArrow=open;dashed=1;endSize=8;curved=0;rounded=0;exitX=0;exitY=1;exitDx=0;exitDy=-5;" edge="1" parent="1">
                    <mxGeometry relative="1" as="geometry">
                        <mxPoint x="149.5" y="449.99999999999955" as="targetPoint"/>
                        <mxPoint x="285" y="449.99999999999955" as="sourcePoint"/>
                    </mxGeometry>
                </mxCell>
                <mxCell id="33" value="" style="html=1;points=[[0,0,0,0,5],[0,1,0,0,-5],[1,0,0,0,5],[1,1,0,0,-5]];perimeter=orthogonalPerimeter;outlineConnect=0;targetShapes=umlLifeline;portConstraint=eastwest;newEdgeStyle={&quot;curved&quot;:0,&quot;rounded&quot;:0};" vertex="1" parent="1">
                    <mxGeometry x="425" y="490" width="10" height="320" as="geometry"/>
                </mxCell>
                <mxCell id="34" value="checkUserRole()&lt;div&gt;{data}&lt;/div&gt;" style="html=1;verticalAlign=bottom;endArrow=block;curved=0;rounded=0;entryX=0;entryY=0;entryDx=0;entryDy=5;" edge="1" target="33" parent="1" source="9">
                    <mxGeometry relative="1" as="geometry">
                        <mxPoint x="355" y="495" as="sourcePoint"/>
                    </mxGeometry>
                </mxCell>
                <mxCell id="35" value="return failed" style="html=1;verticalAlign=bottom;endArrow=open;dashed=1;endSize=8;curved=0;rounded=0;exitX=0;exitY=1;exitDx=0;exitDy=-5;" edge="1" parent="1">
                    <mxGeometry relative="1" as="geometry">
                        <mxPoint x="290" y="709.9999999999991" as="targetPoint"/>
                        <mxPoint x="425.5" y="709.9999999999991" as="sourcePoint"/>
                    </mxGeometry>
                </mxCell>
                <mxCell id="36" value="table[users]:&lt;div&gt;database&lt;/div&gt;" style="shape=umlLifeline;perimeter=lifelinePerimeter;whiteSpace=wrap;html=1;container=1;dropTarget=0;collapsible=0;recursiveResize=0;outlineConnect=0;portConstraint=eastwest;newEdgeStyle={&quot;curved&quot;:0,&quot;rounded&quot;:0};" vertex="1" parent="1">
                    <mxGeometry x="660" y="80" width="100" height="830" as="geometry"/>
                </mxCell>
                <mxCell id="37" value="" style="html=1;points=[[0,0,0,0,5],[0,1,0,0,-5],[1,0,0,0,5],[1,1,0,0,-5]];perimeter=orthogonalPerimeter;outlineConnect=0;targetShapes=umlLifeline;portConstraint=eastwest;newEdgeStyle={&quot;curved&quot;:0,&quot;rounded&quot;:0};" vertex="1" parent="36">
                    <mxGeometry x="45" y="445" width="10" height="80" as="geometry"/>
                </mxCell>
                <mxCell id="38" value="getUser()" style="html=1;verticalAlign=bottom;endArrow=block;curved=0;rounded=0;entryX=0;entryY=0;entryDx=0;entryDy=5;" edge="1" target="37" parent="1" source="33">
                    <mxGeometry relative="1" as="geometry">
                        <mxPoint x="635" y="530" as="sourcePoint"/>
                    </mxGeometry>
                </mxCell>
                <mxCell id="39" value="return user" style="html=1;verticalAlign=bottom;endArrow=open;dashed=1;endSize=8;curved=0;rounded=0;exitX=0;exitY=1;exitDx=0;exitDy=-5;" edge="1" source="37" parent="1" target="4">
                    <mxGeometry relative="1" as="geometry">
                        <mxPoint x="635" y="600" as="targetPoint"/>
                    </mxGeometry>
                </mxCell>
                <mxCell id="40" value="" style="html=1;points=[[0,0,0,0,5],[0,1,0,0,-5],[1,0,0,0,5],[1,1,0,0,-5]];perimeter=orthogonalPerimeter;outlineConnect=0;targetShapes=umlLifeline;portConstraint=eastwest;newEdgeStyle={&quot;curved&quot;:0,&quot;rounded&quot;:0};" vertex="1" parent="1">
                    <mxGeometry x="430" y="640" width="10" height="40" as="geometry"/>
                </mxCell>
                <mxCell id="41" value="compare()" style="html=1;align=left;spacingLeft=2;endArrow=block;rounded=0;edgeStyle=orthogonalEdgeStyle;curved=0;rounded=0;" edge="1" target="40" parent="1">
                    <mxGeometry relative="1" as="geometry">
                        <mxPoint x="435" y="620" as="sourcePoint"/>
                        <Array as="points">
                            <mxPoint x="465" y="650"/>
                        </Array>
                    </mxGeometry>
                </mxCell>
                <mxCell id="42" value="Not match&lt;div&gt;role&lt;/div&gt;" style="shape=umlFrame;whiteSpace=wrap;html=1;pointerEvents=0;" vertex="1" parent="1">
                    <mxGeometry x="60" y="690" width="440" height="90" as="geometry"/>
                </mxCell>
                <mxCell id="43" value="return failed" style="html=1;verticalAlign=bottom;endArrow=open;dashed=1;endSize=8;curved=0;rounded=0;exitX=0;exitY=1;exitDx=0;exitDy=-5;" edge="1" parent="1">
                    <mxGeometry relative="1" as="geometry">
                        <mxPoint x="149.99666666666653" y="734.5" as="targetPoint"/>
                        <mxPoint x="280.33" y="734.5" as="sourcePoint"/>
                    </mxGeometry>
                </mxCell>
                <mxCell id="44" value="return" style="html=1;verticalAlign=bottom;endArrow=open;dashed=1;endSize=8;curved=0;rounded=0;exitX=0;exitY=1;exitDx=0;exitDy=-5;entryX=0.004;entryY=0.548;entryDx=0;entryDy=0;entryPerimeter=0;" edge="1" parent="1">
                    <mxGeometry relative="1" as="geometry">
                        <mxPoint x="60" y="760" as="targetPoint"/>
                        <mxPoint x="142" y="761" as="sourcePoint"/>
                    </mxGeometry>
                </mxCell>
                <mxCell id="45" value="Match&lt;div&gt;role&lt;/div&gt;" style="shape=umlFrame;whiteSpace=wrap;html=1;pointerEvents=0;" vertex="1" parent="1">
                    <mxGeometry x="60" y="780" width="740" height="130" as="geometry"/>
                </mxCell>
                <mxCell id="46" value="return data" style="html=1;verticalAlign=bottom;endArrow=open;dashed=1;endSize=8;curved=0;rounded=0;exitX=0;exitY=1;exitDx=0;exitDy=-5;" edge="1" parent="1">
                    <mxGeometry relative="1" as="geometry">
                        <mxPoint x="290" y="799.9999999999991" as="targetPoint"/>
                        <mxPoint x="425.5" y="799.9999999999991" as="sourcePoint"/>
                    </mxGeometry>
                </mxCell>
                <mxCell id="47" value="return data" style="html=1;verticalAlign=bottom;endArrow=open;dashed=1;endSize=8;curved=0;rounded=0;exitX=0;exitY=1;exitDx=0;exitDy=-5;" edge="1" parent="1">
                    <mxGeometry relative="1" as="geometry">
                        <mxPoint x="150" y="819.9999999999991" as="targetPoint"/>
                        <mxPoint x="285.5" y="819.9999999999991" as="sourcePoint"/>
                    </mxGeometry>
                </mxCell>
                <mxCell id="48" value="routeToHander()" style="html=1;verticalAlign=bottom;endArrow=block;curved=0;rounded=0;entryX=0.995;entryY=0.662;entryDx=0;entryDy=0;exitX=0;exitY=0.112;exitDx=0;exitDy=0;exitPerimeter=0;entryPerimeter=0;" edge="1" parent="1" target="45">
                    <mxGeometry relative="1" as="geometry">
                        <mxPoint x="150" y="870" as="sourcePoint"/>
                        <mxPoint x="235" y="870" as="targetPoint"/>
                    </mxGeometry>
                </mxCell>
            </root>
        </mxGraphModel>
    </diagram>
</mxfile>